# xmcd
#
# Track frame offsets: 
#        150
#        12300
#        30075
#        43935
#        69662
#        83054
#        101435
#        114951
#        133044
#        151644
#        162783
#        180119
#
# Disc length: 2625 seconds
#
# Revision: 0
# Processed by: cddbd v1.5.2PL0 Copyright (c) Steve Scherf et al.
# Submitted via: ExactAudioCopy v0.95b4
#
DISCID=7e0a3f0c
DTITLE=Funny grass - No time to loose
DYEAR=2007
DGENRE=bluegrass
TTITLE0=How mountain girls can love
TTITLE1=Kentucky waltz
TTITLE2=Your love is like a flower
TTITLE3=Long black veil
TTITLE4=Blue ridge cabin home
TTITLE5=Lost highway
TTITLE6=Ill fly away
TTITLE7=Over in the gloryland
TTITLE8=Angel band
TTITLE9=In the highway
TTITLE10=Ploughman
TTITLE11=Smugglers
EXTD=
EXTT0=
EXTT1=
EXTT2=
EXTT3=
EXTT4=
EXTT5=
EXTT6=
EXTT7=
EXTT8=
EXTT9=
EXTT10=
EXTT11=
PLAYORDER=
